PathFileType	4	(X/Y/Z)	/Users/visionmauri/Downloads/Videos/OAW10-top_Sports2D/OAW10-top_Sports2D_m_person00.trc
DataRate	CameraRate	NumFrames	NumMarkers	Units	OrigDataRate	OrigDataStartFrame	OrigNumFrames
25.0	25.0	7	22	m	25.0	1096	1754
Frame#	Time	Hip			RHip			RKnee			RAnkle			RBigToe			RSmallToe			RHeel			LHip			LKnee			LAnkle			LBigToe			LSmallToe			LHeel			Neck			Head			Nose			RShoulder			RElbow			RWrist			LShoulder			LElbow			LWrist			
		X1	Y1	Z1	X2	Y2	Z2	X3	Y3	Z3	X4	Y4	Z4	X5	Y5	Z5	X6	Y6	Z6	X7	Y7	Z7	X8	Y8	Z8	X9	Y9	Z9	X10	Y10	Z10	X11	Y11	Z11	X12	Y12	Z12	X13	Y13	Z13	X14	Y14	Z14	X15	Y15	Z15	X16	Y16	Z16	X17	Y17	Z17	X18	Y18	Z18	X19	Y19	Z19	X20	Y20	Z20	X21	Y21	Z21	X22	Y22	Z22
1096	43.86500855675984	2.9637170797059267	0.41760274133594294	0.0301	3.001630792832053	0.3601379289680925	0.0301	2.806723295785639	0.20591698634936448	0.129	2.643675435756691	0.06451987291041808	0.023	2.639601374564517	0.045346354572865046	0.2179	2.657392419703626	0.011981083260816872	0.1804	2.6020633384895366	0.03357342164830666	-0.0119	2.918728964456041	0.4642141201321463	0.0301	2.722423652831064	0.23035297352855705	0.129	2.508770482674285	0.015146372077946406	0.023	2.5130858986013824	-0.02006046884805923	0.2179	2.4506349972914205	-0.00712572279589927	0.1804	2.4738181582436596	-0.028815310841054907	-0.0119	3.302223700594143	0.692092011019638	0.0008	3.4122018387288544	0.7972266313397637	0.0655	3.319859860543391	0.7194140620680358	0.1076	3.344648339923801	0.5595040020498258	-0.01275	3.1826356964055464	0.37367357157761033	0.0702	3.0199248213003855	0.2436232853337629	0.1076	3.180094897075293	0.7717514205238221	-0.01275	2.989751426511999	0.6812918451087201	0.0702	2.884194599323005	0.6006443212944245	0.1076
1097	43.90503137478608	2.9633288076132973	0.41687463379861817	0.0301	3.0031778053154587	0.3630990047081536	0.0301	2.8037857382825835	0.20579012984641085	0.129	2.639525278056346	0.06720587312867389	0.023	2.6213127954788153	0.0358192053950931	0.2179	2.64677494857967	-0.0005021962675478951	0.1804	2.5937070750775257	0.035901679603415386	-0.0119	2.9198505314482386	0.465383350299978	0.0301	2.7260509325406934	0.23313586016924762	0.129	2.5162738855916826	0.02652005069228769	0.023	2.509968781226357	-0.02146212362972182	0.2179	2.4537962818509533	-0.0034314290417362895	0.1804	2.478858445928158	-0.0197319082890546	-0.0119	3.307845751264159	0.6929050559398326	0.0008	3.4172725535608	0.7904188271892542	0.0655	3.339845125530212	0.7093713978085594	0.1076	3.3433088659024603	0.5592231499961773	-0.01275	3.1798778833319377	0.37474803260645334	0.0702	3.0187215334214135	0.2451653580460606	0.1076	3.183433745113546	0.7689303187016233	-0.01275	2.991844712526606	0.6780006026546214	0.0702	2.8870879833976533	0.5968414240979912	0.1076
1098	43.945054192812314	2.9678657573109266	0.4197077990232756	0.0301	3.0098524855935804	0.36699080412050256	0.0301	2.8067143809476764	0.20779887965875307	0.129	2.6388128997049085	0.06959719795516103	0.023	2.602344476639191	0.02530340308930156	0.2179	2.6358193542817774	-0.013289965656899385	0.1804	2.5885966714093387	0.038637128241787874	-0.0119	2.9246948117928175	0.46792102284204207	0.0301	2.7314839914010145	0.2397568408418152	0.129	2.529449360716459	0.046225912172877096	0.023	2.5046864308526926	-0.023065487026029993	0.2179	2.4597847560473154	0.001685069302266883	0.1804	2.4865517974445095	0.000343048799032733	-0.0119	3.3104526756324075	0.6936621117369225	0.0008	3.419590211400196	0.7912993111909437	0.0655	3.3517900714474234	0.7060956812417079	0.1076	3.344239421054683	0.5637048819732243	-0.01275	3.1838881010643982	0.37907124900986616	0.0702	3.022720079477732	0.24647412718544073	0.1076	3.1873694995351705	0.7685856847083267	-0.01275	2.99451605677657	0.6777163476141796	0.0702	2.887011739191462	0.5926046045349812	0.1076
1099	43.98507701083856	2.97699149214644	0.4271593129619082	0.0301	3.017220275216641	0.3727183287212321	0.0301	2.811750570350315	0.21315787308842507	0.129	2.6398961175137594	0.07188383273461788	0.023	2.588722782935606	0.018680824943572715	0.2179	2.6234682957151256	-0.018014440776189418	0.1804	2.5874451262360236	0.040442928247961564	-0.0119	2.932654995236056	0.47243364146548	0.0301	2.7397218922389523	0.25236334430224716	0.129	2.5516651741327845	0.07812809885150299	0.023	2.4988397096214157	-0.023299071748758688	0.2179	2.4646162967510006	0.008343202767985178	0.1804	2.5041629905820177	0.034039531324022064	-0.0119	3.3071991482121263	0.694099135804669	0.0008	3.416341193356022	0.7973440916056728	0.0655	3.3524700303390427	0.7177241590542205	0.1076	3.3464046954708757	0.570261951256726	-0.01275	3.1908882494628226	0.3855639170067692	0.0702	3.0302607030872846	0.2500409522962673	0.1076	3.1897354841749217	0.7715467497111388	-0.01275	2.998876156317363	0.6804023200460153	0.0702	2.8858425938151244	0.5904776769940724	0.1076
1100	44.025099828864796	2.987327429086547	0.4356104201365294	0.0301	3.0251923443759043	0.38015825674589065	0.0301	2.815947720684997	0.218567837335052	0.129	2.6398809999292	0.07356697766761106	0.023	2.5764054212518093	0.013871986181729799	0.2179	2.6105341103101125	-0.01975022726615687	0.1804	2.5877401662486097	0.03976616371996707	-0.0119	2.9420986966745795	0.47848657208459394	0.0301	2.7492398851948145	0.27168875211305055	0.129	2.582205485129975	0.12053789296777573	0.023	2.4973403207438243	-0.01979894768846895	0.2179	2.467793653121924	0.019143840481340216	0.1804	2.533886276631719	0.07815343177644166	-0.0119	3.3023272369388077	0.6966746443076348	0.0008	3.4076407126230706	0.8031115554875083	0.0655	3.3407609236978013	0.7318865894030028	0.1076	3.351694872040484	0.576563537251293	-0.01275	3.1994787712411914	0.3926723163310365	0.0702	3.0412722998572272	0.2568951341994694	0.1076	3.193431036654524	0.7772535524555626	-0.01275	3.004959676161316	0.683838825613062	0.0702	2.882483317867365	0.5876464639638781	0.1076
1101	44.06512264689104	2.9974568665692534	0.44286807783780197	0.0301	3.036595735841252	0.3890818600074009	0.0301	2.819683520582724	0.2222996227494558	0.129	2.637533734981269	0.07262146462208201	0.023	2.568787494467831	0.012593336481322825	0.2179	2.6040856196592435	-0.021556279414410802	0.1804	2.587565695218631	0.038457739389745144	-0.0119	2.9527668239584894	0.48665521780434623	0.0301	2.7566064659253504	0.2920150831762412	0.129	2.6061498657192836	0.15654105624493045	0.023	2.5058841963512863	-0.0075048114955902	0.2179	2.474334135116586	0.0374991343471764	0.1804	2.561304768785447	0.11649057305066554	-0.0119	3.304942232115424	0.7034934999871483	0.0008	3.4088492058780786	0.8075975465339224	0.0655	3.3321770375822095	0.7332542467079556	0.1076	3.3609326723163067	0.5832416788106838	-0.01275	3.2111326580967714	0.40045284305459805	0.0702	3.0555039826191437	0.2663756734803158	0.1076	3.201771930548383	0.7855748039640305	-0.01275	3.0119312429733043	0.686418315904362	0.0702	2.8774481971003927	0.5830744018462508	0.1076
1102	44.10514546491728	3.007370665762016	0.4511579259626832	0.0301	3.048971658343005	0.39918922860908707	0.0301	2.8234890348056734	0.22573652344565073	0.129	2.6329716828997682	0.068675533579696	0.023	2.571399419157029	0.01817573936910033	0.2179	2.6065048287845545	-0.020494531165759642	0.1804	2.5865243439714622	0.03846948044933223	-0.0119	2.963072908447267	0.4969236529390214	0.0301	2.7608261357077613	0.30634312056432883	0.129	2.6118439991708833	0.17157397167335825	0.023	2.522765716192007	0.01758351449394442	0.2179	2.4874948925969473	0.06399860288602462	0.1804	2.5714941231509365	0.13409820401809186	-0.0119	3.3148434608817636	0.7133502433001998	0.0008	3.4242067792659174	0.814949298141762	0.0655	3.3428422917099185	0.7340832053908186	0.1076	3.3710088496569686	0.5922955715858581	-0.01275	3.224672977612402	0.4098987411857264	0.0702	3.0726664939111235	0.27830847990165775	0.1076	3.2111262421147253	0.7943006174811357	-0.01275	3.0180733079474575	0.6883263894444418	0.0702	2.872867065938178	0.5785837124303884	0.1076
